<svg width="138" height="32" viewBox="0 0 138 32" fill="none" xmlns="http://www.w3.org/2000/svg">
<rect width="4" height="32" fill="#7B2CBF"/>
<path d="M20.875 10.4297H25.8203V24H28.6953V10.4297H33.6406V8H20.875V10.4297ZM36.6516 24H39.55V18.1406H42.5031L45.6438 24H48.8781L45.4172 17.6562C47.3 16.8984 48.2922 15.2891 48.2922 13.1172C48.2922 10.0625 46.3234 8 42.6516 8H36.6516V24ZM39.55 15.7344V10.4219H42.2063C44.3703 10.4219 45.3391 11.4141 45.3391 13.1172C45.3391 14.8203 44.3703 15.7344 42.2219 15.7344H39.55ZM51.5102 24H61.9789V21.5703H54.4086V17.2031H61.3773V14.7734H54.4086V10.4297H61.9164V8H51.5102V24ZM78.5719 8H75.6891V18.9062H75.5484L68.0172 8H65.4234V24H68.3219V13.1016H68.4547L75.9938 24H78.5719V8ZM87.702 24C92.577 24 95.4676 20.9844 95.4676 15.9844C95.4676 11 92.577 8 87.8113 8H82.2801V24H87.702ZM85.1785 21.4922V10.5078H87.6473C90.8973 10.5078 92.5926 12.3203 92.5926 15.9844C92.5926 19.6641 90.8973 21.4922 87.5613 21.4922H85.1785ZM101.67 8H98.7715V24H101.67V8ZM118.507 8H115.624V18.9062H115.484L107.952 8H105.359V24H108.257V13.1016H108.39L115.929 24H118.507V8ZM132.934 13.1094H135.887C135.395 9.96875 132.676 7.78125 129.137 7.78125C124.95 7.78125 121.809 10.8594 121.809 16.0156C121.809 21.0781 124.809 24.2187 129.223 24.2187C133.184 24.2187 136.02 21.6719 136.02 17.5469V15.625H129.528V17.8906H133.215C133.168 20.1719 131.645 21.6172 129.239 21.6172C126.559 21.6172 124.723 19.6094 124.723 15.9844C124.723 12.3828 126.59 10.3828 129.176 10.3828C131.106 10.3828 132.418 11.4141 132.934 13.1094Z" fill="#110F15"/>
</svg>
