<svg width="39" height="39" viewBox="0 0 39 39" fill="none" xmlns="http://www.w3.org/2000/svg">
<rect opacity="0.05" width="39" height="39" rx="8" fill="#7B2CBF"/>
<path d="M27.19 21.06L26.06 19.18C25.81 18.77 25.59 17.98 25.59 17.5V15.63C25.59 12 22.64 9.04999 19.02 9.04999C15.39 9.05999 12.44 12 12.44 15.63V17.49C12.44 17.97 12.22 18.76 11.98 19.17L10.85 21.05C10.42 21.78 10.32 22.61 10.59 23.33C10.86 24.06 11.47 24.64 12.27 24.9C13.35 25.26 14.44 25.52 15.55 25.71C15.66 25.73 15.77 25.74 15.88 25.76C16.02 25.78 16.17 25.8 16.32 25.82C16.58 25.86 16.84 25.89 17.11 25.91C17.74 25.97 18.38 26 19.02 26C19.65 26 20.28 25.97 20.9 25.91C21.13 25.89 21.36 25.87 21.58 25.84C21.76 25.82 21.94 25.8 22.12 25.77C22.23 25.76 22.34 25.74 22.45 25.72C23.57 25.54 24.68 25.26 25.76 24.9C26.53 24.64 27.12 24.06 27.4 23.32C27.68 22.57 27.6 21.75 27.19 21.06ZM19.75 17C19.75 17.42 19.41 17.76 18.99 17.76C18.57 17.76 18.23 17.42 18.23 17V13.9C18.23 13.48 18.57 13.14 18.99 13.14C19.41 13.14 19.75 13.48 19.75 13.9V17Z" fill="#2A0E42"/>
<path d="M21.83 27.01C21.41 28.17 20.3 29 19 29C18.21 29 17.43 28.68 16.88 28.11C16.56 27.81 16.32 27.41 16.18 27C16.31 27.02 16.44 27.03 16.58 27.05C16.81 27.08 17.05 27.11 17.29 27.13C17.86 27.18 18.44 27.21 19.02 27.21C19.59 27.21 20.16 27.18 20.72 27.13C20.93 27.11 21.14 27.1 21.34 27.07C21.5 27.05 21.66 27.03 21.83 27.01Z" fill="#292D32"/>
</svg>
